<?xml version="1.0" standalone="no"?>
<!DOCTYPE svg PUBLIC "-//W3C//DTD SVG 20010904//EN"
 "http://www.w3.org/TR/2001/REC-SVG-20010904/DTD/svg10.dtd">
<svg version="1.0" xmlns="http://www.w3.org/2000/svg"
 width="768.000000pt" height="768.000000pt" viewBox="0 0 768.000000 768.000000"
 preserveAspectRatio="xMidYMid meet">
<metadata>
Created by potrace 1.14, written by Peter Selinger 2001-2017
</metadata>
<g transform="translate(0.000000,768.000000) scale(0.100000,-0.100000)"
fill="#000000" stroke="none">
<path d="M3458 7675 c-1 -1 -43 -6 -93 -10 -125 -9 -236 -21 -281 -29 -11 -2
-39 -7 -64 -11 -54 -9 -63 -11 -120 -24 -25 -5 -60 -13 -79 -16 -19 -3 -42
-10 -52 -16 -11 -5 -19 -8 -19 -5 0 3 -39 -9 -87 -25 -49 -16 -88 -29 -88 -28
0 5 -117 -35 -205 -71 -187 -74 -357 -167 -490 -268 -25 -19 -46 -38 -48 -43
-2 -5 -9 -9 -15 -9 -13 0 -227 -218 -227 -231 0 -4 -6 -14 -13 -21 -83 -84
-222 -393 -251 -555 -2 -15 -7 -41 -10 -58 -3 -16 -8 -46 -12 -65 -12 -71 -17
-530 -5 -530 6 0 11 -5 11 -11 0 -6 7 -18 17 -27 14 -14 40 -17 182 -16 398 3
958 15 976 21 19 5 54 39 56 52 0 3 2 20 5 36 30 223 68 340 158 485 47 74 56
87 111 145 57 60 179 143 235 160 3 1 12 5 20 8 159 70 379 102 700 102 175 0
264 -4 400 -20 64 -7 225 -50 285 -76 179 -76 266 -130 358 -223 78 -78 124
-152 166 -261 45 -115 52 -174 53 -404 0 -216 -2 -242 -29 -331 -9 -30 -17
-57 -17 -60 -1 -3 -5 -10 -9 -17 -4 -6 -21 -38 -38 -70 -17 -32 -49 -83 -72
-113 -55 -73 -176 -193 -218 -215 -113 -58 -189 -94 -224 -104 -22 -7 -56 -18
-75 -26 -49 -19 -74 -28 -80 -30 -10 -2 -125 -46 -145 -54 -54 -24 -419 -153
-585 -206 -47 -15 -89 -30 -95 -34 -5 -3 -12 -6 -15 -6 -11 -2 -266 -88 -300
-102 -8 -4 -18 -7 -22 -8 -5 -2 -10 -4 -13 -5 -3 -1 -8 -3 -12 -4 -5 -1 -42
-13 -83 -28 -41 -15 -212 -71 -380 -126 -275 -89 -518 -187 -528 -214 -2 -4
-8 -8 -13 -8 -14 0 -85 -47 -164 -109 -154 -120 -297 -286 -402 -466 -40 -68
-107 -219 -134 -298 -46 -141 -48 -146 -64 -234 -3 -16 -8 -38 -10 -51 -3 -13
-9 -53 -13 -90 -10 -92 -9 -1058 1 -1102 5 -19 10 -46 12 -60 8 -53 25 -133
40 -184 9 -29 17 -62 19 -72 21 -104 139 -325 246 -458 39 -50 213 -216 251
-241 9 -5 60 -40 115 -77 130 -87 394 -218 440 -218 7 0 14 -3 16 -7 2 -5 53
-23 113 -42 61 -18 121 -37 135 -42 14 -5 36 -11 50 -13 14 -3 36 -7 50 -10
14 -3 36 -8 50 -11 14 -3 36 -8 50 -11 34 -7 57 -11 110 -18 25 -3 56 -8 70
-11 44 -8 166 -21 310 -32 187 -15 843 -7 938 12 9 1 46 6 82 9 36 4 75 8 87
10 12 3 43 8 70 12 26 3 57 9 68 11 11 2 34 7 50 9 17 3 75 17 130 30 125 31
130 32 130 34 0 1 7 3 15 5 123 28 411 153 560 244 236 143 444 344 556 536
16 28 29 52 30 55 0 3 10 26 22 53 12 26 21 49 21 52 1 3 8 19 16 35 8 16 15
31 14 32 -1 5 12 62 22 88 4 14 11 36 13 50 3 14 9 41 14 60 5 19 9 38 10 43
1 4 4 22 7 40 9 47 14 84 21 162 9 88 9 4405 1 4500 -4 39 -9 81 -12 95 -2 14
-7 43 -10 65 -16 137 -114 384 -206 523 -16 24 -29 45 -29 47 0 5 -7 14 -87
110 -75 90 -180 195 -187 188 -3 -4 -6 -1 -6 4 0 6 -30 35 -67 64 -38 30 -71
58 -75 64 -4 5 -8 6 -8 2 0 -5 -14 3 -31 17 -17 14 -34 26 -39 26 -5 0 -15 6
-22 13 -7 6 -38 25 -68 41 -30 16 -68 37 -85 46 -16 9 -46 22 -65 30 -19 7
-59 24 -88 37 -29 12 -61 23 -72 23 -10 0 -21 4 -24 9 -3 4 -20 12 -38 16 -37
9 -47 12 -50 15 -2 1 -10 3 -18 5 -8 2 -40 11 -70 19 -50 15 -169 41 -230 52
-123 22 -172 29 -270 40 -91 10 -115 13 -115 14 0 8 -808 23 -817 15z m1566
-4712 c-1 -804 -5 -991 -20 -1064 -2 -13 -7 -40 -10 -59 -4 -28 -21 -97 -29
-120 -1 -3 -6 -20 -10 -37 -4 -18 -11 -33 -16 -33 -5 0 -9 -7 -9 -15 0 -16
-57 -136 -69 -145 -3 -3 -13 -18 -21 -35 -24 -47 -161 -178 -215 -205 -28 -14
-52 -28 -55 -31 -19 -23 -258 -94 -385 -114 -75 -12 -94 -14 -197 -21 -329
-21 -691 9 -868 71 -22 8 -41 14 -43 14 -12 -3 -166 72 -178 87 -6 8 -15 14
-20 14 -23 0 -123 100 -175 175 -65 93 -130 255 -148 370 -22 141 -26 180 -27
310 -1 137 13 224 53 340 33 96 63 148 148 256 123 157 309 293 495 365 58 22
608 210 640 218 6 2 17 6 25 9 8 3 69 24 135 47 206 72 289 101 305 107 8 4
17 7 20 8 3 1 12 4 20 7 8 4 92 32 185 63 94 31 202 73 240 92 70 34 143 86
158 109 4 7 13 19 20 26 7 7 19 28 26 46 7 17 16 32 20 32 3 0 5 -399 5 -887z"/>
</g>
</svg>
